<svg width="400" height="255" viewBox="0 0 400 255" fill="none" xmlns="http://www.w3.org/2000/svg">
<path d="M105 77.5179C110.532 68.6251 126.732 62.1577 142.537 77.5179C158.65 93.178 177.702 86.4106 184.024 77.5179C196.846 59.4819 220.143 68.1629 227.093 77.5179C234.6 87.6232 257.912 94.8991 267 77.5179" stroke="#4770FF" stroke-opacity="0.8" stroke-width="11"/>
<path d="M105 152.518C110.532 143.625 126.732 137.158 142.537 152.518C158.65 168.178 177.702 161.411 184.024 152.518C196.846 134.482 220.143 143.163 227.093 152.518C234.6 162.623 257.912 169.899 267 152.518" stroke="#4770FF" stroke-opacity="0.8" stroke-width="11"/>
<path d="M105 102.518C110.532 93.6252 126.732 87.1577 142.537 102.518C158.65 118.178 177.702 111.411 184.024 102.518C196.846 84.4819 220.143 93.1629 227.093 102.518C234.6 112.623 257.912 119.899 267 102.518" stroke="#4770FF" stroke-opacity="0.8" stroke-width="11"/>
<path d="M105 177.017C110.532 168.548 126.732 162.388 142.537 177.017C158.65 191.931 177.702 185.486 184.024 177.017C196.846 159.84 220.143 168.108 227.093 177.017C234.6 186.641 257.912 193.571 267 177.017" stroke="#4770FF" stroke-opacity="0.8" stroke-width="11"/>
<path d="M105 127.518C110.532 118.625 126.732 112.158 142.537 127.518C158.65 143.178 177.702 136.411 184.024 127.518C196.846 109.482 220.143 118.163 227.093 127.518C234.6 137.623 257.912 144.899 267 127.518" stroke="#4770FF" stroke-opacity="0.8" stroke-width="11"/>
<path d="M25.92 145V106.6H33.6L33.504 115.912L32.688 124.504H34.464L36.768 115.912L40.224 106.6H48.096L41.712 122.392L48.384 145H41.088L36.72 129.64L33.264 136.36V145H25.92ZM57.7594 145L63.0874 106.6H75.3754L80.7034 145H73.3114L72.4954 136.984H65.9674L65.1514 145H57.7594ZM66.6394 130.648H71.8234L70.9594 122.152L70.3834 112.936H68.0794L67.5034 122.152L66.6394 130.648ZM90.0656 145V106.6H97.2656V145H90.0656ZM108.568 145V106.6H118.792C122.408 106.6 125.016 107.368 126.616 108.904C128.216 110.408 129.048 112.92 129.112 116.44C129.176 118.648 129.208 120.76 129.208 122.776C129.24 124.76 129.24 126.76 129.208 128.776C129.208 130.76 129.176 132.872 129.112 135.112C129.048 138.632 128.216 141.16 126.616 142.696C125.016 144.232 122.408 145 118.792 145H108.568ZM115.768 138.664H118.792C120.808 138.664 121.848 137.768 121.912 135.976C122.104 129.16 122.104 122.36 121.912 115.576C121.848 113.816 120.808 112.936 118.792 112.936H115.768V138.664ZM150.243 145.48C146.531 145.48 143.843 144.744 142.179 143.272C140.547 141.768 139.699 139.288 139.635 135.832C139.603 133.432 139.571 131.16 139.539 129.016C139.539 126.84 139.539 124.68 139.539 122.536C139.571 120.392 139.603 118.12 139.635 115.72C139.699 112.296 140.547 109.848 142.179 108.376C143.843 106.872 146.531 106.12 150.243 106.12C153.891 106.12 156.531 106.872 158.163 108.376C159.795 109.848 160.675 112.296 160.803 115.72C160.899 118.12 160.963 120.408 160.995 122.584C161.027 124.728 161.027 126.872 160.995 129.016C160.963 131.16 160.899 133.432 160.803 135.832C160.675 139.288 159.795 141.768 158.163 143.272C156.531 144.744 153.891 145.48 150.243 145.48ZM150.243 139.624C151.427 139.624 152.275 139.368 152.787 138.856C153.299 138.312 153.571 137.432 153.603 136.216C153.923 129.24 153.923 122.28 153.603 115.336C153.571 114.12 153.299 113.256 152.787 112.744C152.275 112.232 151.427 111.976 150.243 111.976C149.059 111.976 148.195 112.232 147.651 112.744C147.139 113.256 146.867 114.12 146.835 115.336C146.515 122.28 146.515 129.24 146.835 136.216C146.867 137.432 147.139 138.312 147.651 138.856C148.195 139.368 149.059 139.624 150.243 139.624Z" fill="#313131"/>
<path d="M212.92 145V106.6H222.664C226.248 106.6 228.824 107.336 230.392 108.808C231.992 110.248 232.856 112.632 232.984 115.96C233.016 116.856 233.032 117.64 233.032 118.312C233.064 118.984 233.064 119.656 233.032 120.328C233.032 121 233.016 121.784 232.984 122.68C232.92 124.76 232.568 126.472 231.928 127.816C231.288 129.128 230.312 130.136 229 130.84L233.512 145H225.88L222.232 132.04H220.12V145H212.92ZM220.12 125.704H222.664C224.648 125.704 225.688 124.824 225.784 123.064C225.944 120.568 225.944 118.072 225.784 115.576C225.688 113.816 224.648 112.936 222.664 112.936H220.12V125.704ZM242.416 145L247.744 106.6H260.032L265.36 145H257.968L257.152 136.984H250.624L249.808 145H242.416ZM251.296 130.648H256.48L255.616 122.152L255.04 112.936H252.736L252.16 122.152L251.296 130.648ZM274.722 145V106.6H287.73L290.898 121.144L291.522 138.664H293.73L294.306 121.144L297.522 106.6H310.482V145H303.042V133.192L304.434 112.936H302.178L300.162 133.672L296.946 145H288.018L285.09 133.672L283.026 112.936H280.818L282.162 133.192V145H274.722ZM321.771 145V106.6H339.339V112.936H328.971V122.296H338.859V128.632H328.971V138.664H339.339V145H321.771ZM349.18 145V106.6H361.036L363.916 118.84L366.556 138.664H368.764L367.42 123.064L366.844 106.6H374.092V145H361.66L358.78 132.424L356.812 112.888H354.508L355.756 130.264L356.38 145H349.18Z" fill="#313131"/>
</svg>
