<svg width="400" height="255" viewBox="0 0 400 255" fill="none" xmlns="http://www.w3.org/2000/svg">
<path d="M137.01 230C126.01 223 118.01 202.5 137.01 182.5C156.381 162.109 148.01 138 137.01 130C114.7 113.775 125.439 84.2945 137.01 75.5C149.51 66 158.51 36.5 137.01 25" stroke="#4770FF" stroke-width="11"/>
<path d="M203.01 230C192.01 223 184.01 202.5 203.01 182.5C222.381 162.109 214.01 138 203.01 130C180.7 113.775 191.439 84.2945 203.01 75.5C215.51 66 224.51 36.5 203.01 25" stroke="#4770FF" stroke-width="11"/>
<path d="M159.01 230C148.01 223 140.01 202.5 159.01 182.5C178.381 162.109 170.01 138 159.01 130C136.7 113.775 147.439 84.2945 159.01 75.5C171.51 66 180.51 36.5 159.01 25" stroke="#4770FF" stroke-width="11"/>
<path d="M225.01 230C214.01 223 206.01 202.5 225.01 182.5C244.381 162.109 236.01 138 225.01 130C202.7 113.775 213.439 84.2945 225.01 75.5C237.51 66 246.51 36.5 225.01 25" stroke="#4770FF" stroke-width="11"/>
<path d="M180.01 230C169.01 223 161.01 202.5 180.01 182.5C199.381 162.109 191.01 138 180.01 130C157.7 113.775 168.439 84.2945 180.01 75.5C192.51 66 201.51 36.5 180.01 25" stroke="#4770FF" stroke-width="11"/>
<path d="M246.01 230C235.01 223 227.01 202.5 246.01 182.5C265.381 162.109 257.01 138 246.01 130C223.7 113.775 234.439 84.2945 246.01 75.5C258.51 66 267.51 36.5 246.01 25" stroke="#4770FF" stroke-width="11"/>
<path d="M35.92 140V101.6H43.6L43.504 110.912L42.688 119.504H44.464L46.768 110.912L50.224 101.6H58.096L51.712 117.392L58.384 140H51.088L46.72 124.64L43.264 131.36V140H35.92ZM67.7594 140L73.0874 101.6H85.3754L90.7034 140H83.3114L82.4954 131.984H75.9674L75.1514 140H67.7594ZM76.6394 125.648H81.8234L80.9594 117.152L80.3834 107.936H78.0794L77.5034 117.152L76.6394 125.648ZM100.066 140V101.6H107.266V140H100.066ZM118.568 140V101.6H128.792C132.408 101.6 135.016 102.368 136.616 103.904C138.216 105.408 139.048 107.92 139.112 111.44C139.176 113.648 139.208 115.76 139.208 117.776C139.24 119.76 139.24 121.76 139.208 123.776C139.208 125.76 139.176 127.872 139.112 130.112C139.048 133.632 138.216 136.16 136.616 137.696C135.016 139.232 132.408 140 128.792 140H118.568ZM125.768 133.664H128.792C130.808 133.664 131.848 132.768 131.912 130.976C132.104 124.16 132.104 117.36 131.912 110.576C131.848 108.816 130.808 107.936 128.792 107.936H125.768V133.664ZM160.243 140.48C156.531 140.48 153.843 139.744 152.179 138.272C150.547 136.768 149.699 134.288 149.635 130.832C149.603 128.432 149.571 126.16 149.539 124.016C149.539 121.84 149.539 119.68 149.539 117.536C149.571 115.392 149.603 113.12 149.635 110.72C149.699 107.296 150.547 104.848 152.179 103.376C153.843 101.872 156.531 101.12 160.243 101.12C163.891 101.12 166.531 101.872 168.163 103.376C169.795 104.848 170.675 107.296 170.803 110.72C170.899 113.12 170.963 115.408 170.995 117.584C171.027 119.728 171.027 121.872 170.995 124.016C170.963 126.16 170.899 128.432 170.803 130.832C170.675 134.288 169.795 136.768 168.163 138.272C166.531 139.744 163.891 140.48 160.243 140.48ZM160.243 134.624C161.427 134.624 162.275 134.368 162.787 133.856C163.299 133.312 163.571 132.432 163.603 131.216C163.923 124.24 163.923 117.28 163.603 110.336C163.571 109.12 163.299 108.256 162.787 107.744C162.275 107.232 161.427 106.976 160.243 106.976C159.059 106.976 158.195 107.232 157.651 107.744C157.139 108.256 156.867 109.12 156.835 110.336C156.515 117.28 156.515 124.24 156.835 131.216C156.867 132.432 157.139 133.312 157.651 133.856C158.195 134.368 159.059 134.624 160.243 134.624Z" fill="#313131"/>
<path d="M211.92 140V101.6H221.664C225.248 101.6 227.824 102.336 229.392 103.808C230.992 105.248 231.856 107.632 231.984 110.96C232.016 111.856 232.032 112.64 232.032 113.312C232.064 113.984 232.064 114.656 232.032 115.328C232.032 116 232.016 116.784 231.984 117.68C231.92 119.76 231.568 121.472 230.928 122.816C230.288 124.128 229.312 125.136 228 125.84L232.512 140H224.88L221.232 127.04H219.12V140H211.92ZM219.12 120.704H221.664C223.648 120.704 224.688 119.824 224.784 118.064C224.944 115.568 224.944 113.072 224.784 110.576C224.688 108.816 223.648 107.936 221.664 107.936H219.12V120.704ZM241.416 140L246.744 101.6H259.032L264.36 140H256.968L256.152 131.984H249.624L248.808 140H241.416ZM250.296 125.648H255.48L254.616 117.152L254.04 107.936H251.736L251.16 117.152L250.296 125.648ZM273.722 140V101.6H286.73L289.898 116.144L290.522 133.664H292.73L293.306 116.144L296.522 101.6H309.482V140H302.042V128.192L303.434 107.936H301.178L299.162 128.672L295.946 140H287.018L284.09 128.672L282.026 107.936H279.818L281.162 128.192V140H273.722ZM320.771 140V101.6H338.339V107.936H327.971V117.296H337.859V123.632H327.971V133.664H338.339V140H320.771ZM348.18 140V101.6H360.036L362.916 113.84L365.556 133.664H367.764L366.42 118.064L365.844 101.6H373.092V140H360.66L357.78 127.424L355.812 107.888H353.508L354.756 125.264L355.38 140H348.18Z" fill="#313131"/>
</svg>
